<svg xmlns="http://www.w3.org/2000/svg" viewBox="0 0 200 200" width="200" height="200">
  <defs>
    <linearGradient id="healthGradient" x1="0%" y1="0%" x2="100%" y2="100%">
      <stop offset="0%" style="stop-color:#F5B2D6;stop-opacity:1" />
      <stop offset="100%" style="stop-color:#E687C2;stop-opacity:1" />
    </linearGradient>
    <linearGradient id="heartGradient" x1="0%" y1="0%" x2="100%" y2="100%">
      <stop offset="0%" style="stop-color:#CC4D80;stop-opacity:1" />
      <stop offset="100%" style="stop-color:#E687C2;stop-opacity:1" />
    </linearGradient>
  </defs>
  
  <!-- Background circle -->
  <circle cx="100" cy="100" r="90" fill="url(#healthGradient)" opacity="0.2"/>
  
  <!-- Main health cross -->
  <rect x="85" y="60" width="30" height="80" rx="15" fill="url(#heartGradient)"/>
  <rect x="60" y="85" width="80" height="30" rx="15" fill="url(#heartGradient)"/>
  
  <!-- Heart shape in center -->
  <path d="M100 110 C90 100, 75 105, 75 120 C75 135, 100 155, 100 155 C100 155, 125 135, 125 120 C125 105, 110 100, 100 110 Z" 
        fill="#FFFFFF" opacity="0.9"/>
  
  <!-- Decorative dots -->
  <circle cx="65" cy="65" r="4" fill="url(#heartGradient)" opacity="0.6"/>
  <circle cx="135" cy="65" r="4" fill="url(#heartGradient)" opacity="0.6"/>
  <circle cx="65" cy="135" r="4" fill="url(#heartGradient)" opacity="0.6"/>
  <circle cx="135" cy="135" r="4" fill="url(#heartGradient)" opacity="0.6"/>
  
  <!-- Pulse line -->
  <path d="M30 100 L50 100 L55 85 L60 115 L65 90 L70 110 L75 100 L170 100" 
        stroke="url(#heartGradient)" stroke-width="3" fill="none" opacity="0.7"/>
</svg>
