<svg xmlns="http://www.w3.org/2000/svg" viewBox="0 0 200 200" width="200" height="200">
  <defs>
    <linearGradient id="hygieneGradient" x1="0%" y1="0%" x2="100%" y2="100%">
      <stop offset="0%" style="stop-color:#F5B2D6;stop-opacity:1" />
      <stop offset="100%" style="stop-color:#E687C2;stop-opacity:1" />
    </linearGradient>
    <linearGradient id="cleanGradient" x1="0%" y1="0%" x2="100%" y2="100%">
      <stop offset="0%" style="stop-color:#CC4D80;stop-opacity:1" />
      <stop offset="100%" style="stop-color:#E687C2;stop-opacity:1" />
    </linearGradient>
    <linearGradient id="bubbleGradient" x1="0%" y1="0%" x2="100%" y2="100%">
      <stop offset="0%" style="stop-color:#FFFFFF;stop-opacity:0.8" />
      <stop offset="100%" style="stop-color:#F5B2D6;stop-opacity:0.4" />
    </linearGradient>
  </defs>
  
  <!-- Background circle -->
  <circle cx="100" cy="100" r="90" fill="url(#hygieneGradient)" opacity="0.2"/>
  
  <!-- Soap bar -->
  <rect x="70" y="120" width="60" height="35" rx="8" fill="url(#cleanGradient)"/>
  <rect x="70" y="115" width="60" height="10" rx="5" fill="url(#cleanGradient)" opacity="0.7"/>
  
  <!-- Water drops -->
  <path d="M85 100 C85 95, 90 90, 95 90 C100 90, 105 95, 105 100 C105 105, 95 110, 95 110 C95 110, 85 105, 85 100 Z" 
        fill="url(#bubbleGradient)"/>
  <path d="M110 85 C110 80, 115 75, 120 75 C125 75, 130 80, 130 85 C130 90, 120 95, 120 95 C120 95, 110 90, 110 85 Z" 
        fill="url(#bubbleGradient)"/>
  <path d="M60 90 C60 85, 65 80, 70 80 C75 80, 80 85, 80 90 C80 95, 70 100, 70 100 C70 100, 60 95, 60 90 Z" 
        fill="url(#bubbleGradient)"/>
  
  <!-- Soap bubbles -->
  <circle cx="45" cy="60" r="8" fill="url(#bubbleGradient)" opacity="0.7"/>
  <circle cx="155" cy="70" r="6" fill="url(#bubbleGradient)" opacity="0.7"/>
  <circle cx="40" cy="120" r="5" fill="url(#bubbleGradient)" opacity="0.7"/>
  <circle cx="160" cy="130" r="7" fill="url(#bubbleGradient)" opacity="0.7"/>
  <circle cx="130" cy="45" r="4" fill="url(#bubbleGradient)" opacity="0.7"/>
  <circle cx="170" cy="100" r="5" fill="url(#bubbleGradient)" opacity="0.7"/>
  
  <!-- Hands washing gesture -->
  <ellipse cx="100" cy="70" rx="25" ry="15" fill="url(#cleanGradient)" opacity="0.6"/>
  <path d="M80 65 Q100 55 120 65 Q100 75 80 65" fill="url(#cleanGradient)" opacity="0.4"/>
  
  <!-- Sparkles for cleanliness -->
  <path d="M50 50 L52 48 L54 50 L52 52 Z" fill="url(#cleanGradient)"/>
  <path d="M150 160 L152 158 L154 160 L152 162 Z" fill="url(#cleanGradient)"/>
  <path d="M30 140 L32 138 L34 140 L32 142 Z" fill="url(#cleanGradient)"/>
  <path d="M170 50 L172 48 L174 50 L172 52 Z" fill="url(#cleanGradient)"/>
</svg>
